<svg width="42" height="39" viewBox="0 0 42 39" fill="none" xmlns="http://www.w3.org/2000/svg">
<path d="M21.0001 38.75L17.9792 36.0417C14.4723 32.882 11.573 30.1563 9.28133 27.8646C6.98966 25.573 5.16675 23.5243 3.81258 21.7188C2.45842 19.8785 1.50355 18.1945 0.947998 16.6667C0.427165 15.1389 0.166748 13.5764 0.166748 11.9792C0.166748 8.71532 1.2605 5.98962 3.448 3.80212C5.6355 1.61462 8.36119 0.520874 11.6251 0.520874C13.4306 0.520874 15.1494 0.902819 16.7813 1.66671C18.4133 2.4306 19.8195 3.50699 21.0001 4.89588C22.1806 3.50699 23.5869 2.4306 25.2188 1.66671C26.8508 0.902819 28.5695 0.520874 30.3751 0.520874C33.639 0.520874 36.3647 1.61462 38.5522 3.80212C40.7397 5.98962 41.8334 8.71532 41.8334 11.9792C41.8334 13.5764 41.5556 15.1389 41.0001 16.6667C40.4792 18.1945 39.5417 19.8785 38.1876 21.7188C36.8334 23.5243 35.0105 25.573 32.7188 27.8646C30.4272 30.1563 27.5279 32.882 24.0209 36.0417L21.0001 38.75ZM21.0001 33.125C24.3334 30.1389 27.0765 27.5868 29.2292 25.4688C31.382 23.316 33.0834 21.4584 34.3334 19.8959C35.5834 18.2987 36.4515 16.8924 36.9376 15.6771C37.4237 14.4271 37.6667 13.1945 37.6667 11.9792C37.6667 9.89587 36.9723 8.15976 35.5834 6.77088C34.1945 5.38199 32.4584 4.68754 30.3751 4.68754C28.7431 4.68754 27.2327 5.15629 25.8438 6.09379C24.4549 6.99657 23.5001 8.15976 22.9792 9.58338H19.0209C18.5001 8.15976 17.5452 6.99657 16.1563 6.09379C14.7674 5.15629 13.257 4.68754 11.6251 4.68754C9.54175 4.68754 7.80564 5.38199 6.41675 6.77088C5.02786 8.15976 4.33341 9.89587 4.33341 11.9792C4.33341 13.1945 4.57647 14.4271 5.06258 15.6771C5.54869 16.8924 6.41675 18.2987 7.66675 19.8959C8.91675 21.4584 10.6181 23.316 12.7709 25.4688C14.9237 27.5868 17.6667 30.1389 21.0001 33.125Z" fill="#EE10B0"/>
</svg>
